<svg width="20" height="21" viewBox="0 0 20 21" fill="none" xmlns="http://www.w3.org/2000/svg">
<path d="M8.33317 3V6.33333C8.33317 6.55435 8.24537 6.76631 8.08909 6.92259C7.93281 7.07887 7.72085 7.16667 7.49984 7.16667H4.1665M10.8332 5.5H13.3332M10.8332 8H13.3332M9.99984 10.5V15.5M13.3332 13H6.6665M15.8332 3.83333V17.1667C15.8332 17.3877 15.7454 17.5996 15.5891 17.7559C15.4328 17.9122 15.2209 18 14.9998 18H4.99984C4.77882 18 4.56686 17.9122 4.41058 17.7559C4.2543 17.5996 4.1665 17.3877 4.1665 17.1667V7.095C4.16655 6.874 4.25438 6.66208 4.41067 6.50583L7.67234 3.24417C7.82858 3.08788 8.04051 3.00005 8.2615 3H14.9998C15.2209 3 15.4328 3.0878 15.5891 3.24408C15.7454 3.40036 15.8332 3.61232 15.8332 3.83333ZM6.6665 10.5V15.5H13.3332V10.5H6.6665Z" stroke="#667085" stroke-linecap="round" stroke-linejoin="round"/>
</svg>
