<svg width="20" height="21" viewBox="0 0 20 21" fill="none" xmlns="http://www.w3.org/2000/svg">
<path d="M2.85693 4.2499C2.85693 3.63421 3.10151 3.04375 3.53686 2.6084C3.97222 2.17305 4.56268 1.92847 5.17836 1.92847H14.8212C15.4369 1.92847 16.0274 2.17305 16.4627 2.6084C16.8981 3.04375 17.1426 3.63421 17.1426 4.2499V12.9135C17.0565 12.9706 16.9753 13.0373 16.8991 13.1135L16.0712 13.9413V4.2499C16.0712 3.91837 15.9395 3.60043 15.7051 3.36601C15.4707 3.13159 15.1527 2.9999 14.8212 2.9999H5.17836C4.84684 2.9999 4.5289 3.13159 4.29448 3.36601C4.06006 3.60043 3.92836 3.91837 3.92836 4.2499V16.7499C3.92836 17.4399 4.48836 17.9999 5.17836 17.9999H10.9412L12.0126 19.0713H5.17836C4.56268 19.0713 3.97222 18.8267 3.53686 18.3914C3.10151 17.956 2.85693 17.3656 2.85693 16.7499V4.2499ZM7.49979 6.7499C7.49979 6.9867 7.40572 7.2138 7.23828 7.38124C7.07084 7.54868 6.84373 7.64275 6.60693 7.64275C6.37013 7.64275 6.14303 7.54868 5.97559 7.38124C5.80815 7.2138 5.71408 6.9867 5.71408 6.7499C5.71408 6.51309 5.80815 6.28599 5.97559 6.11855C6.14303 5.95111 6.37013 5.85704 6.60693 5.85704C6.84373 5.85704 7.07084 5.95111 7.23828 6.11855C7.40572 6.28599 7.49979 6.51309 7.49979 6.7499ZM6.60693 11.3928C6.84373 11.3928 7.07084 11.2987 7.23828 11.1312C7.40572 10.9638 7.49979 10.7367 7.49979 10.4999C7.49979 10.2631 7.40572 10.036 7.23828 9.86855C7.07084 9.70111 6.84373 9.60704 6.60693 9.60704C6.37013 9.60704 6.14303 9.70111 5.97559 9.86855C5.80815 10.036 5.71408 10.2631 5.71408 10.4999C5.71408 10.7367 5.80815 10.9638 5.97559 11.1312C6.14303 11.2987 6.37013 11.3928 6.60693 11.3928ZM6.60693 15.1428C6.84373 15.1428 7.07084 15.0487 7.23828 14.8812C7.40572 14.7138 7.49979 14.4867 7.49979 14.2499C7.49979 14.0131 7.40572 13.786 7.23828 13.6185C7.07084 13.4511 6.84373 13.357 6.60693 13.357C6.37013 13.357 6.14303 13.4511 5.97559 13.6185C5.80815 13.786 5.71408 14.0131 5.71408 14.2499C5.71408 14.4867 5.80815 14.7138 5.97559 14.8812C6.14303 15.0487 6.37013 15.1428 6.60693 15.1428ZM9.10693 6.21418C8.96485 6.21418 8.82859 6.27062 8.72813 6.37109C8.62766 6.47155 8.57122 6.60781 8.57122 6.7499C8.57122 6.89198 8.62766 7.02824 8.72813 7.1287C8.82859 7.22917 8.96485 7.28561 9.10693 7.28561H13.7498C13.8919 7.28561 14.0281 7.22917 14.1286 7.1287C14.2291 7.02824 14.2855 6.89198 14.2855 6.7499C14.2855 6.60781 14.2291 6.47155 14.1286 6.37109C14.0281 6.27062 13.8919 6.21418 13.7498 6.21418H9.10693ZM8.57122 10.4999C8.57122 10.3578 8.62766 10.2216 8.72813 10.1211C8.82859 10.0206 8.96485 9.96418 9.10693 9.96418H13.7498C13.8919 9.96418 14.0281 10.0206 14.1286 10.1211C14.2291 10.2216 14.2855 10.3578 14.2855 10.4999C14.2855 10.642 14.2291 10.7782 14.1286 10.8787C14.0281 10.9792 13.8919 11.0356 13.7498 11.0356H9.10693C8.96485 11.0356 8.82859 10.9792 8.72813 10.8787C8.62766 10.7782 8.57122 10.642 8.57122 10.4999ZM9.10693 13.7142C8.96485 13.7142 8.82859 13.7706 8.72813 13.8711C8.62766 13.9716 8.57122 14.1078 8.57122 14.2499C8.57122 14.392 8.62766 14.5282 8.72813 14.6287C8.82859 14.7292 8.96485 14.7856 9.10693 14.7856H13.7498C13.8919 14.7856 14.0281 14.7292 14.1286 14.6287C14.2291 14.5282 14.2855 14.392 14.2855 14.2499C14.2855 14.1078 14.2291 13.9716 14.1286 13.8711C14.0281 13.7706 13.8919 13.7142 13.7498 13.7142H9.10693ZM18.4141 14.6285L14.1284 18.9142C14.0279 19.0145 13.8918 19.0709 13.7498 19.0709C13.6078 19.0709 13.4717 19.0145 13.3712 18.9142L11.2298 16.7728C11.1352 16.6712 11.0836 16.5369 11.0861 16.3981C11.0885 16.2593 11.1448 16.1269 11.2429 16.0287C11.3411 15.9306 11.4735 15.8744 11.6123 15.8719C11.7511 15.8695 11.8854 15.921 11.9869 16.0156L13.7498 17.7778L17.6569 13.8706C17.7064 13.8195 17.7655 13.7787 17.8309 13.7506C17.8963 13.7226 17.9666 13.7078 18.0377 13.7073C18.1088 13.7067 18.1794 13.7203 18.2452 13.7472C18.311 13.7742 18.3708 13.814 18.4211 13.8643C18.4714 13.9147 18.5111 13.9745 18.538 14.0403C18.5649 14.1062 18.5784 14.1767 18.5778 14.2479C18.5771 14.319 18.5623 14.3893 18.5342 14.4546C18.5061 14.52 18.4653 14.5791 18.4141 14.6285Z" fill="#667085"/>
</svg>
