<svg width="16" height="16" viewBox="0 0 16 16" fill="none" xmlns="http://www.w3.org/2000/svg">
<g clip-path="url(#clip0_73_2960)">
<path d="M8 0.533315L8.23893 0.0565154C8.16477 0.0193512 8.08296 0 8 0C7.91704 0 7.83523 0.0193512 7.76107 0.0565154L8 0.533315ZM4.8 9.06665V8.53332H4.26667V9.06665H4.8ZM9.06667 9.06665H9.6V8.53332H9.06667V9.06665ZM0 16H16V14.9333H0V16ZM7.76107 0.0565154L1.36107 3.25652L1.83893 4.21012L8.23893 1.01012L7.76107 0.0565154ZM0 6.39998H16V5.33332H0V6.39998ZM14.6389 3.25652L8.23893 0.0565154L7.76107 1.01012L14.1611 4.21012L14.6389 3.25652ZM1.06667 5.86665V15.4666H2.13333V5.86665H1.06667ZM13.8667 5.86665V15.4666H14.9333V5.86665H13.8667ZM5.33333 15.4666V9.06665H4.26667V15.4666H5.33333ZM4.8 9.59998H9.06667V8.53332H4.8V9.59998ZM8.53333 9.06665V15.4666H9.6V9.06665H8.53333Z" fill="#667085"/>
</g>
<defs>
<clipPath id="clip0_73_2960">
<rect width="16" height="16" fill="white"/>
</clipPath>
</defs>
</svg>
