<svg width="121" height="127" viewBox="0 0 121 127" fill="none" xmlns="http://www.w3.org/2000/svg">
<path d="M60.3948 125.152C92.7848 125.152 119.052 99.0822 119.052 66.8897C119.052 34.6972 92.7848 8.6272 60.3948 8.6272C28.0048 8.6272 1.7373 34.6972 1.7373 66.8897C1.7373 99.0822 28.0048 125.152 60.3948 125.152Z" fill="#F1F3FA" stroke="#D5DAE5" stroke-opacity="0.5" stroke-width="2" stroke-miterlimit="10"/>
<path d="M105.326 59.2859V94.9346C105.326 102.341 99.3024 108.365 91.7974 108.365H29.1899C21.7836 108.365 15.7599 102.44 15.6611 95.0334C15.6611 94.9346 15.6611 94.9346 15.6611 94.8359V59.2859C15.6611 59.1871 15.6611 59.1871 15.6611 59.0884C15.6611 58.8909 15.6611 58.6934 15.7599 58.4959C15.8586 58.1996 15.9574 58.0021 16.0561 57.7059L32.8436 25.6121C33.4361 24.3284 34.7199 23.6371 36.1024 23.6371H84.7861C86.1686 23.6371 87.3536 24.3284 88.0449 25.6121L104.832 57.7059C104.931 57.9034 105.03 58.1996 105.129 58.4959C105.326 58.6934 105.326 58.9896 105.326 59.2859Z" fill="#F1F3FA" stroke="#D5DAE5" stroke-opacity="0.5" stroke-width="2" stroke-miterlimit="10"/>
<path d="M84.9013 10.6683C86.1901 24.7373 86.8344 27.9593 83.9166 40.7007C82.9677 43.5334 82.0188 46.6359 79.9854 48.7941C77.1387 52.1664 71.9875 53.6502 67.7852 52.571C63.4474 51.4919 59.9229 47.715 59.1095 43.1288C58.4317 40.2961 59.3807 36.9238 61.8207 35.1703C64.3963 33.5516 68.0563 33.9562 70.2253 35.9796C72.6653 38.0029 73.6142 41.1054 73.4786 44.073C73.3431 47.0406 72.2586 50.0081 70.7675 52.571C67.3967 58.8729 66.009 58.8498 59.1096 69.1998" stroke="#306E9C" stroke-opacity="0.73" stroke-width="2" stroke-miterlimit="10" stroke-dasharray="4 4"/>
<path d="M92.4582 5.42839C91.9429 7.30839 89.8818 7.99203 87.8208 6.79567C85.588 5.77021 84.0422 4.91567 84.3857 3.20657C84.9009 1.49748 86.962 1.32657 89.3666 1.15566C92.2864 0.813844 92.8017 3.54839 92.4582 5.42839Z" fill="#D5DAE5" fill-opacity="0.5"/>
<path d="M75.7983 7.1374C76.6571 8.67558 79.0616 9.70104 80.7792 8.16285C82.6685 6.45376 84.2143 5.2574 83.3555 3.5483C82.4967 2.01012 81.1227 2.52285 78.2029 2.86467C75.7983 3.37739 74.7678 5.4283 75.7983 7.1374Z" fill="#D5DAE5" fill-opacity="0.5"/>
<path d="M83.356 0.813954C84.5583 0.643045 85.7606 1.32668 86.1041 2.35214C86.2758 2.69396 86.4476 3.20668 86.4476 3.5485C86.7911 5.94123 85.9323 7.99214 84.5583 8.16305C83.0125 8.50487 81.4667 6.79578 81.2949 4.57396C81.2949 3.89032 81.2949 3.5485 81.2949 3.03577C81.4667 1.83941 82.1537 0.984864 83.356 0.813954C83.5277 0.813954 83.356 0.813954 83.356 0.813954Z" fill="#306E9C" fill-opacity="0.73"/>
<path d="M105.326 59.2859V98.5884C105.326 104.02 100.981 108.365 95.4511 108.365H25.5361C20.1049 108.365 15.6611 104.02 15.6611 98.5884V59.0884C15.6611 58.8909 15.6611 58.6934 15.7599 58.4959H38.2749C41.6324 58.4959 44.3974 61.1622 44.3974 64.6184C44.3974 66.2972 45.0886 67.8772 46.1749 68.9634C47.3599 70.1484 48.7424 70.7409 50.5199 70.7409H70.5661C73.9236 70.7409 76.6886 68.0747 76.6886 64.6184C76.6886 62.9397 77.3799 61.3597 78.4661 60.2734C79.6511 59.0884 81.0336 58.4959 82.7124 58.4959H105.129C105.326 58.6934 105.326 58.9897 105.326 59.2859Z" fill="white" stroke="#D5DAE5" stroke-opacity="0.5" stroke-width="2" stroke-miterlimit="10"/>
<path d="M49.2266 83.9336C50.4778 83.9336 51.4922 82.9192 51.4922 81.668C51.4922 80.4167 50.4778 79.4023 49.2266 79.4023C47.9753 79.4023 46.9609 80.4167 46.9609 81.668C46.9609 82.9192 47.9753 83.9336 49.2266 83.9336Z" fill="#306E9C" fill-opacity="0.73"/>
<path d="M71.7607 83.9336C73.012 83.9336 74.0263 82.9192 74.0263 81.668C74.0263 80.4167 73.012 79.4023 71.7607 79.4023C70.5095 79.4023 69.4951 80.4167 69.4951 81.668C69.4951 82.9192 70.5095 83.9336 71.7607 83.9336Z" fill="#306E9C" fill-opacity="0.73"/>
<path d="M64.1667 98.8132H57.0637C55.9615 98.8132 55.043 97.8947 55.043 96.7925C55.043 95.6903 55.9615 94.7719 57.0637 94.7719H64.1054C65.2076 94.7719 66.1261 95.6903 66.1261 96.7925C66.1874 97.8947 65.2689 98.8132 64.1667 98.8132Z" fill="#306E9C" fill-opacity="0.73"/>
</svg>
