<svg width="20" height="21" viewBox="0 0 20 21" fill="none" xmlns="http://www.w3.org/2000/svg">
<path d="M7.00016 3H4.66683C4.31321 3 3.97407 3.14048 3.72402 3.39052C3.47397 3.64057 3.3335 3.97971 3.3335 4.33333V8.33333C3.3335 8.50843 3.36798 8.68181 3.43499 8.84358C3.502 9.00535 3.60021 9.15233 3.72402 9.27614C3.84783 9.39995 3.99482 9.49817 4.15659 9.56517C4.31835 9.63218 4.49173 9.66667 4.66683 9.66667H7.00016C7.17526 9.66667 7.34864 9.63218 7.51041 9.56517C7.67218 9.49817 7.81916 9.39995 7.94297 9.27614C8.06678 9.15233 8.165 9.00535 8.232 8.84358C8.29901 8.68181 8.3335 8.50843 8.3335 8.33333V4.33333C8.3335 3.97971 8.19302 3.64057 7.94297 3.39052C7.69292 3.14048 7.35378 3 7.00016 3ZM7.00016 13H4.66683C4.31321 13 3.97407 13.1405 3.72402 13.3905C3.47397 13.6406 3.3335 13.9797 3.3335 14.3333V16.6667C3.3335 17.0203 3.47397 17.3594 3.72402 17.6095C3.97407 17.8595 4.31321 18 4.66683 18H7.00016C7.35378 18 7.69292 17.8595 7.94297 17.6095C8.19302 17.3594 8.3335 17.0203 8.3335 16.6667V14.3333C8.3335 13.9797 8.19302 13.6406 7.94297 13.3905C7.69292 13.1405 7.35378 13 7.00016 13ZM15.3335 3H13.0002C12.6465 3 12.3074 3.14048 12.0574 3.39052C11.8073 3.64057 11.6668 3.97971 11.6668 4.33333V6.66667C11.6668 7.02029 11.8073 7.35943 12.0574 7.60948C12.3074 7.85952 12.6465 8 13.0002 8H15.3335C15.6871 8 16.0263 7.85952 16.2763 7.60948C16.5264 7.35943 16.6668 7.02029 16.6668 6.66667V4.33333C16.6668 3.97971 16.5264 3.64057 16.2763 3.39052C16.0263 3.14048 15.6871 3 15.3335 3ZM15.3335 11.3333H13.0002C12.6465 11.3333 12.3074 11.4738 12.0574 11.7239C11.8073 11.9739 11.6668 12.313 11.6668 12.6667V16.6667C11.6668 17.0203 11.8073 17.3594 12.0574 17.6095C12.3074 17.8595 12.6465 18 13.0002 18H15.3335C15.6871 18 16.0263 17.8595 16.2763 17.6095C16.5264 17.3594 16.6668 17.0203 16.6668 16.6667V12.6667C16.6668 12.313 16.5264 11.9739 16.2763 11.7239C16.0263 11.4738 15.6871 11.3333 15.3335 11.3333Z" stroke="#667085" stroke-width="1.5" stroke-miterlimit="10" stroke-linejoin="round"/>
</svg>
