<svg width="20" height="21" viewBox="0 0 20 21" fill="none" xmlns="http://www.w3.org/2000/svg">
<path d="M4.16667 18C3.70833 18 3.31611 17.8369 2.99 17.5108C2.66389 17.1847 2.50056 16.7922 2.5 16.3333V4.66667C2.5 4.20833 2.66333 3.81611 2.99 3.49C3.31667 3.16389 3.70889 3.00056 4.16667 3H9.16667C9.40278 3 9.60083 3.08 9.76083 3.24C9.92083 3.4 10.0006 3.59778 10 3.83333C9.99944 4.06889 9.91944 4.26694 9.76 4.4275C9.60056 4.58806 9.40278 4.66778 9.16667 4.66667H4.16667V16.3333H9.16667C9.40278 16.3333 9.60083 16.4133 9.76083 16.5733C9.92083 16.7333 10.0006 16.9311 10 17.1667C9.99944 17.4022 9.91944 17.6003 9.76 17.7608C9.60056 17.9214 9.40278 18.0011 9.16667 18H4.16667ZM14.3125 11.3333H8.33333C8.09722 11.3333 7.89945 11.2533 7.74 11.0933C7.58056 10.9333 7.50056 10.7356 7.5 10.5C7.49944 10.2644 7.57944 10.0667 7.74 9.90667C7.90056 9.74667 8.09833 9.66667 8.33333 9.66667H14.3125L12.75 8.10417C12.5972 7.95139 12.5208 7.76389 12.5208 7.54167C12.5208 7.31944 12.5972 7.125 12.75 6.95833C12.9028 6.79167 13.0972 6.70472 13.3333 6.6975C13.5694 6.69028 13.7708 6.77028 13.9375 6.9375L16.9167 9.91667C17.0833 10.0833 17.1667 10.2778 17.1667 10.5C17.1667 10.7222 17.0833 10.9167 16.9167 11.0833L13.9375 14.0625C13.7708 14.2292 13.5731 14.3092 13.3442 14.3025C13.1153 14.2958 12.9172 14.2089 12.75 14.0417C12.5972 13.875 12.5244 13.6772 12.5317 13.4483C12.5389 13.2194 12.6186 13.0283 12.7708 12.875L14.3125 11.3333Z" fill="#667085"/>
</svg>
