<svg width="16" height="16" viewBox="0 0 16 16" fill="none" xmlns="http://www.w3.org/2000/svg">
<g clip-path="url(#clip0_73_1264)">
<path d="M2.66675 4H3.55564V4.88889H2.66675V4Z" fill="#667085"/>
<path d="M4.44434 4H10.6666V4.88889H4.44434V4Z" fill="#667085"/>
<path d="M2.66675 7.55554H3.55564V8.44443H2.66675V7.55554Z" fill="#667085"/>
<path d="M4.44434 7.55554H10.6666V8.44443H4.44434V7.55554Z" fill="#667085"/>
<path d="M14.2222 2.22217H1.7778C1.54206 2.22217 1.31596 2.31582 1.14927 2.48252C0.982567 2.64922 0.888916 2.87531 0.888916 3.11106V12.8888C0.888916 13.1246 0.982567 13.3507 1.14927 13.5174C1.31596 13.6841 1.54206 13.7777 1.7778 13.7777H14.2222C14.458 13.7777 14.6841 13.6841 14.8508 13.5174C15.0175 13.3507 15.1111 13.1246 15.1111 12.8888V3.11106C15.1111 2.87531 15.0175 2.64922 14.8508 2.48252C14.6841 2.31582 14.458 2.22217 14.2222 2.22217ZM1.7778 3.11106H14.2222V5.77772H1.7778V3.11106ZM1.7778 6.66661H14.2222V9.33328H1.7778V6.66661ZM1.7778 12.8888V10.2222H14.2222V12.8888H1.7778Z" fill="#667085"/>
<path d="M2.66675 11.1111H3.55564V12H2.66675V11.1111Z" fill="#667085"/>
<path d="M4.44434 11.1111H10.6666V12H4.44434V11.1111Z" fill="#667085"/>
</g>
<defs>
<clipPath id="clip0_73_1264">
<rect width="16" height="16" fill="white"/>
</clipPath>
</defs>
</svg>
