<svg width="20" height="21" viewBox="0 0 20 21" fill="none" xmlns="http://www.w3.org/2000/svg">
<path d="M17.5 17.1667C17.5 15.7151 16.1083 14.4809 14.1667 14.0226M12.5 17.1667C12.5 15.3251 10.2617 13.8334 7.5 13.8334C4.73833 13.8334 2.5 15.3251 2.5 17.1667M12.5 11.3334C13.3841 11.3334 14.2319 10.9822 14.857 10.3571C15.4821 9.73198 15.8333 8.88414 15.8333 8.00008C15.8333 7.11603 15.4821 6.26818 14.857 5.64306C14.2319 5.01794 13.3841 4.66675 12.5 4.66675M7.5 11.3334C6.61594 11.3334 5.7681 10.9822 5.14298 10.3571C4.51786 9.73198 4.16667 8.88414 4.16667 8.00008C4.16667 7.11603 4.51786 6.26818 5.14298 5.64306C5.7681 5.01794 6.61594 4.66675 7.5 4.66675C8.38406 4.66675 9.2319 5.01794 9.85702 5.64306C10.4821 6.26818 10.8333 7.11603 10.8333 8.00008C10.8333 8.88414 10.4821 9.73198 9.85702 10.3571C9.2319 10.9822 8.38406 11.3334 7.5 11.3334Z" stroke="#667085" stroke-linecap="round" stroke-linejoin="round"/>
</svg>
